<?xml version="1.0"?>
<svg xmlns="http://www.w3.org/2000/svg" height="512px" viewBox="0 -52 512 512" width="512px" class=""><g><path d="m272.007812 328.113281h-87.664062v64.121094h95.179688v-64.121094zm0 0" fill="#00e9cc" data-original="#00E9CC" style="fill:#5E72E4" class="active-path" data-old_color="#00e9cc"/><path d="m151.785156 384.71875h160.296875v15.027344h-160.296875zm0 0" data-original="#000000" class="" style="fill:#000000" data-old_color="#000000"/><g fill="#00e9cc"><path d="m191.859375 240.449219h16.03125v15.027343h-16.03125zm0 0" data-original="#00E9CC" style="fill:#5E72E4" class="active-path" data-old_color="#00E9CC"/><path d="m223.917969 240.449219h16.03125v15.027343h-16.03125zm0 0" data-original="#00E9CC" style="fill:#5E72E4" class="active-path" data-old_color="#00E9CC"/><path d="m255.980469 240.449219h16.027343v15.027343h-16.027343zm0 0" data-original="#00E9CC" style="fill:#5E72E4" class="active-path" data-old_color="#00E9CC"/><path d="m40.074219 40.074219h231.433593v79.148437h-231.433593zm0 0" data-original="#00E9CC" style="fill:#5E72E4" class="active-path" data-old_color="#00E9CC"/></g><path d="m39.574219 136.253906h232.433593v15.027344h-232.433593zm0 0" data-original="#000000" class="" style="fill:#000000" data-old_color="#000000"/><path d="m39.574219 168.316406h232.433593v15.027344h-232.433593zm0 0" data-original="#000000" class="" style="fill:#000000" data-old_color="#000000"/><path d="m39.574219 200.375h232.433593v15.027344h-232.433593zm0 0" data-original="#000000" class="" style="fill:#000000" data-old_color="#000000"/><path d="m296.054688 40.074219h128.238281v15.027343h-128.238281zm0 0" data-original="#000000" class="" style="fill:#000000" data-old_color="#000000"/><path d="m296.054688 72.136719h128.238281v15.027343h-128.238281zm0 0" data-original="#000000" class="" style="fill:#000000" data-old_color="#000000"/><path d="m296.054688 104.195312h128.238281v15.027344h-128.238281zm0 0" data-original="#000000" class="" style="fill:#000000" data-old_color="#000000"/><path d="m384.21875 312.585938h96.179688v15.027343h-96.179688zm0 0" data-original="#000000" class="" style="fill:#000000" data-old_color="#000000"/><path d="m353.160156 352.660156v39.074219c0 8.539063 7.492188 16.027344 16.03125 16.027344h127.738282c8.289062 0 15.027343-7.191407 15.027343-16.027344v-39.074219zm0 0" fill="#00e9cc" data-original="#00E9CC" style="fill:#5E72E4" class="active-path" data-old_color="#00e9cc"/><path d="m496.972656 136.339844h-127.738281c-8.839844 0-16.03125 6.738281-16.03125 15.027344v40.074218h158.796875v-40.074218c0-8.570313-6.460938-15.027344-15.027344-15.027344zm0 0" fill="#00e9cc" data-original="#00E9CC" style="fill:#5E72E4" class="active-path" data-old_color="#00e9cc"/><path d="m511.960938 199.371094v-15.027344h-158.800782v15.15625h143.769532v145.144531h-128.742188v-128.742187h-15.027344v56.609375h-338.132812v-256.984375c0-.273438.226562-.5.5-.5h432.8125c.273437 0 .5.226562.5.5v104.195312h15.027344v-104.195312c0-8.5625-6.964844-15.527344-15.527344-15.527344h-432.8125c-8.5625 0-15.527344 6.964844-15.527344 15.527344v304.570312c0 8.5625 6.964844 15.53125 15.527344 15.53125h320.601562v-15.027344h-320.601562c-.273438 0-.5-.226562-.5-.503906v-32.558594h338.132812v72.132813h158.800782v-15.027344h-.003907v-145.273437zm-158.757813.085937v-.085937h13.175781zm0 0" data-original="#000000" class="" style="fill:#000000" data-old_color="#000000"/><path d="m416.027344 368.691406h32.0625v15.027344h-32.0625zm0 0" data-original="#000000" class="" style="fill:#000000" data-old_color="#000000"/><path d="m384.71875 216.40625h95.179688v79.148438h-95.179688zm0 0" fill="#00e9cc" data-original="#00E9CC" style="fill:#5E72E4" class="active-path" data-old_color="#00e9cc"/></g> </svg>
